<?xml version="1.0" encoding="utf-8"?>
<!-- Generator: Adobe Illustrator 13.0.0, SVG Export Plug-In . SVG Version: 6.00 Build 14948)  -->
<!DOCTYPE svg PUBLIC "-//W3C//DTD SVG 1.1//EN" "http://www.w3.org/Graphics/SVG/1.1/DTD/svg11.dtd">
<svg version="1.1" id="Layer_1" xmlns="http://www.w3.org/2000/svg" xmlns:xlink="http://www.w3.org/1999/xlink" x="0px" y="0px"
	 width="105px" height="25px" viewBox="0 0 105 25" enable-background="new 0 0 105 25" xml:space="preserve">
<g>
	<path fill="#00ACC1" d="M22.098,2.779v2.949h-6.374v4.199h5.999v2.949h-5.999v4.799h6.624v2.949H12.125V2.779H22.098z"/>
	<path fill="#00ACC1" d="M30.947,19.2h-0.05c-0.75,1.25-1.699,1.774-3.049,1.774c-2.825,0-4.124-2.074-4.124-7.072
		c0-5,1.299-7.074,4.124-7.074c1.299,0,2.174,0.525,2.898,1.6h0.051V2.779h3.449v17.846h-3.3V19.2z M28.973,18.326
		c1.525,0,1.825-1.5,1.825-4.424c0-2.925-0.3-4.425-1.825-4.425c-1.499,0-1.799,1.5-1.799,4.425
		C27.174,16.826,27.474,18.326,28.973,18.326z"/>
	<path fill="#00ACC1" d="M43.447,19.051h-0.05c-0.725,1.324-1.975,1.924-3.424,1.924c-2.149,0-3.425-1.174-3.425-3.824V7.178h3.449
		v9.273c0,1.35,0.45,1.875,1.475,1.875c1.175,0,1.825-0.726,1.825-2.225V7.178h3.449v13.447h-3.3V19.051z"/>
	<path fill="#00ACC1" d="M60.271,14.502c-0.2,3.373-1.524,6.473-5.424,6.473c-5.073,0-5.748-4.773-5.748-9.272
		s0.824-9.272,5.748-9.272c3.649,0,5.174,2.049,5.273,5.548h-2.299c-0.05-2.024-0.7-3.749-2.975-3.749
		c-3.049,0-3.449,3.349-3.449,7.473s0.4,7.474,3.449,7.474c2.675,0,3.049-2.5,3.124-4.674H60.271z"/>
	<path fill="#00ACC1" d="M66.424,6.878c3.874,0,4.823,3.274,4.823,7.048s-0.975,7.048-4.823,7.048c-3.874,0-4.824-3.273-4.824-7.048
		S62.574,6.878,66.424,6.878z M69.048,13.927c0-2.899-0.425-5.399-2.674-5.399c-2.125,0-2.575,2.5-2.575,5.399
		s0.426,5.398,2.575,5.398C68.598,19.325,69.048,16.826,69.048,13.927z"/>
	<path fill="#00ACC1" d="M73.35,7.229h2.1v1.999h0.05c0.6-1.274,1.399-2.349,2.899-2.349c0.425,0,0.725,0.05,0.925,0.15v2.049
		c-0.2-0.025-0.45-0.1-1.125-0.1c-1.05,0-2.749,0.95-2.749,3.174v8.473h-2.1V7.229z"/>
	<path fill="#00ACC1" d="M82.498,14.177c0,2.05,0,5.148,2.574,5.148c2,0,2.274-2.1,2.274-3.099h2.1c0,1.424-0.85,4.748-4.499,4.748
		c-3.273,0-4.648-2.273-4.648-6.873c0-3.349,0.649-7.223,4.773-7.223c4.1,0,4.475,3.574,4.475,6.448v0.851H82.498z M87.347,12.527
		v-0.725c0-1.5-0.475-3.274-2.324-3.274c-2.199,0-2.449,2.7-2.449,3.5v0.5H87.347z"/>
</g>
</svg>
